<svg xmlns="http://www.w3.org/2000/svg" width="1200" height="900" viewBox="0 0 1200 900" role="img" aria-label="Mostrar o uso básico do Git como histórico e recuperação de versões."><rect width="1200" height="900" fill="#120f0c"/><rect x="46" y="46" width="1108" height="808" rx="40" fill="#17120e" stroke="#433628" stroke-width="3"/><rect x="82" y="82" width="240" height="14" rx="7" fill="#e4ba68" opacity="0.92"/><rect x="82" y="110" width="168" height="10" rx="5" fill="#b9aa95" opacity="0.3"/><g transform="translate(0 -92)"><g transform="translate(160 220)"><rect width="880" height="600" rx="30" fill="#17120e" stroke="#433628" stroke-width="3"/><rect width="880" height="58" rx="30" fill="#201913" stroke="#433628" stroke-width="3"/><circle cx="36" cy="29" r="8" fill="#d8847a"/><circle cx="62" cy="29" r="8" fill="#e4ba68"/><circle cx="88" cy="29" r="8" fill="#8bc2a3"/><text x="848" y="36" fill="#b9aa95" font-size="22" font-weight="600" text-anchor="end" font-family="Verdana, Arial, sans-serif">tabela</text><g transform="translate(28 82)"><rect x="0" y="0" width="824" height="520" rx="26" fill="#1d1712" stroke="#433628" stroke-width="2"/><rect x="24" y="24" width="300" height="18" rx="9" fill="#f2d79d"/><rect x="24" y="76" width="776" height="56" rx="18" fill="#1a1511" stroke="#433628" stroke-width="2"/><rect x="24" y="156" width="776" height="82" rx="18" fill="#201913" stroke="#433628" stroke-width="2"/><rect x="24" y="256" width="776" height="82" rx="18" fill="#201913" stroke="#433628" stroke-width="2"/><rect x="24" y="356" width="776" height="82" rx="18" fill="#201913" stroke="#433628" stroke-width="2"/><line x1="270" y1="76" x2="270" y2="438" stroke="#433628" stroke-width="2"/><line x1="520" y1="76" x2="520" y2="438" stroke="#433628" stroke-width="2"/></g></g></g></svg>