<svg xmlns="http://www.w3.org/2000/svg" width="1200" height="900" viewBox="0 0 1200 900" role="img" aria-label="Mostrar que as chaves delimitam um bloco de instruções no JavaScript."><rect width="1200" height="900" fill="#120f0c"/><rect x="46" y="46" width="1108" height="808" rx="40" fill="#17120e" stroke="#433628" stroke-width="3"/><rect x="82" y="82" width="240" height="14" rx="7" fill="#e4ba68" opacity="0.92"/><rect x="82" y="110" width="168" height="10" rx="5" fill="#b9aa95" opacity="0.3"/><g transform="translate(0 -92)"><g transform="translate(82 228)"><rect width="480" height="600" rx="28" fill="#1f1a16" stroke="#e4ba68" stroke-width="3"/><rect x="32" y="52" width="320" height="16" rx="8" fill="#f2d79d" opacity="1"/><rect x="32" y="136" width="390" height="16" rx="8" fill="#8fb9bd" opacity="0.78"/><rect x="32" y="220" width="270" height="16" rx="8" fill="#f2d79d" opacity="0.78"/><rect x="32" y="304" width="230" height="16" rx="8" fill="#8fb9bd" opacity="0.78"/></g><g transform="translate(650 220)"><rect width="470" height="610" rx="30" fill="#17120e" stroke="#433628" stroke-width="3"/><rect width="470" height="58" rx="30" fill="#201913" stroke="#433628" stroke-width="3"/><circle cx="36" cy="29" r="8" fill="#d8847a"/><circle cx="62" cy="29" r="8" fill="#e4ba68"/><circle cx="88" cy="29" r="8" fill="#8bc2a3"/><text x="438" y="36" fill="#b9aa95" font-size="22" font-weight="600" text-anchor="end" font-family="Verdana, Arial, sans-serif">JavaScript</text><g transform="translate(28 82)"><rect x="0" y="0" width="420" height="420" rx="22" fill="#1d1712" stroke="#433628" stroke-width="2"/><rect x="20" y="20" width="220" height="16" rx="8" fill="#e4ba68" opacity="0.88"/><rect x="20" y="48" width="280" height="10" rx="5" fill="#b9aa95" opacity="0.35"/><rect x="20" y="72" width="220" height="10" rx="5" fill="#b9aa95" opacity="0.2"/><text x="20" y="402" fill="#b9aa95" font-size="18" font-weight="600" font-family="Verdana, Arial, sans-serif">editor</text><rect x="36" y="254" width="112" height="44" rx="18" fill="#201913" stroke="#e4ba68" stroke-width="2"/><rect x="168" y="254" width="112" height="44" rx="18" fill="#201913" stroke="#e4ba68" stroke-width="2"/></g></g></g></svg>