<svg xmlns="http://www.w3.org/2000/svg" width="1200" height="900" viewBox="0 0 1200 900" role="img" aria-label="Reforçar visualmente depuração orientada dentro do miniprojeto."><rect width="1200" height="900" fill="#120f0c"/><rect x="46" y="46" width="1108" height="808" rx="40" fill="#17120e" stroke="#433628" stroke-width="3"/><rect x="82" y="82" width="240" height="14" rx="7" fill="#e4ba68" opacity="0.92"/><rect x="82" y="110" width="168" height="10" rx="5" fill="#b9aa95" opacity="0.3"/><g transform="translate(0 -92)"><g transform="translate(70 220)"><rect width="530" height="610" rx="30" fill="#17120e" stroke="#433628" stroke-width="3"/><rect width="530" height="58" rx="30" fill="#201913" stroke="#433628" stroke-width="3"/><circle cx="36" cy="29" r="8" fill="#d8847a"/><circle cx="62" cy="29" r="8" fill="#e4ba68"/><circle cx="88" cy="29" r="8" fill="#8bc2a3"/><text x="498" y="36" fill="#b9aa95" font-size="22" font-weight="600" text-anchor="end" font-family="Verdana, Arial, sans-serif">antes</text><g transform="translate(28 82)"><rect x="0" y="0" width="520" height="510" rx="22" fill="#1d1712" stroke="#433628" stroke-width="2"/><rect x="20" y="20" width="220" height="16" rx="8" fill="#e4ba68" opacity="0.88"/><rect x="20" y="48" width="280" height="10" rx="5" fill="#b9aa95" opacity="0.35"/><rect x="20" y="72" width="220" height="10" rx="5" fill="#b9aa95" opacity="0.2"/><rect x="42" y="220" width="112" height="44" rx="18" fill="#201913" stroke="#e4ba68" stroke-width="2"/><rect x="174" y="220" width="112" height="44" rx="18" fill="#201913" stroke="#e4ba68" stroke-width="2"/><rect x="306" y="220" width="112" height="44" rx="18" fill="#201913" stroke="#e4ba68" stroke-width="2"/><rect x="42" y="300" width="420" height="56" rx="20" fill="#201913" stroke="#8bc2a3" stroke-width="2"/></g></g><g transform="translate(670 220)"><rect width="530" height="610" rx="30" fill="#17120e" stroke="#433628" stroke-width="3"/><rect width="530" height="58" rx="30" fill="#201913" stroke="#433628" stroke-width="3"/><circle cx="36" cy="29" r="8" fill="#d8847a"/><circle cx="62" cy="29" r="8" fill="#e4ba68"/><circle cx="88" cy="29" r="8" fill="#8bc2a3"/><text x="498" y="36" fill="#b9aa95" font-size="22" font-weight="600" text-anchor="end" font-family="Verdana, Arial, sans-serif">depois</text><g transform="translate(28 82)"><rect x="0" y="0" width="520" height="510" rx="22" fill="#1d1712" stroke="#433628" stroke-width="2"/><rect x="20" y="20" width="220" height="16" rx="8" fill="#e4ba68" opacity="0.88"/><rect x="20" y="48" width="280" height="10" rx="5" fill="#b9aa95" opacity="0.35"/><rect x="20" y="72" width="220" height="10" rx="5" fill="#b9aa95" opacity="0.2"/><rect x="42" y="150" width="436" height="160" rx="20" fill="#1a1511" stroke="#433628" stroke-width="2"/><rect x="42" y="356" width="112" height="44" rx="18" fill="#201913" stroke="#e4ba68" stroke-width="2"/><rect x="174" y="356" width="112" height="44" rx="18" fill="#201913" stroke="#e4ba68" stroke-width="2"/><rect x="306" y="356" width="112" height="44" rx="18" fill="#201913" stroke="#e4ba68" stroke-width="2"/><rect x="42" y="420" width="436" height="42" rx="20" fill="#201913" stroke="#8bc2a3" stroke-width="2"/></g></g></g></svg>