<svg xmlns="http://www.w3.org/2000/svg" width="1200" height="900" viewBox="0 0 1200 900" role="img" aria-label="Mostrar o cartão de erro de carregamento do miniprojeto."><rect width="1200" height="900" fill="#120f0c"/><rect x="46" y="46" width="1108" height="808" rx="40" fill="#17120e" stroke="#433628" stroke-width="3"/><rect x="82" y="82" width="240" height="14" rx="7" fill="#e4ba68" opacity="0.92"/><rect x="82" y="110" width="168" height="10" rx="5" fill="#b9aa95" opacity="0.3"/><g transform="translate(0 -92)"><g transform="translate(120 200)"><rect width="960" height="640" rx="30" fill="#17120e" stroke="#433628" stroke-width="3"/><rect width="960" height="58" rx="30" fill="#201913" stroke="#433628" stroke-width="3"/><circle cx="36" cy="29" r="8" fill="#d8847a"/><circle cx="62" cy="29" r="8" fill="#e4ba68"/><circle cx="88" cy="29" r="8" fill="#8bc2a3"/><text x="928" y="36" fill="#b9aa95" font-size="22" font-weight="600" text-anchor="end" font-family="Verdana, Arial, sans-serif">interface</text><g transform="translate(28 82)"><rect x="0" y="0" width="904" height="116" rx="24" fill="#1a1511" stroke="#433628" stroke-width="2"/><rect x="30" y="26" width="180" height="14" rx="7" fill="#e4ba68"/><rect x="30" y="58" width="320" height="16" rx="8" fill="#b9aa95" opacity="0.3"/><rect x="0" y="148" width="904" height="418" rx="24" fill="#1d1712" stroke="#433628" stroke-width="2"/><rect x="44" y="214" width="340" height="164" rx="22" fill="#1d1712" stroke="#433628" stroke-width="2"/><rect x="64" y="234" width="220" height="16" rx="8" fill="#e4ba68" opacity="0.88"/><rect x="64" y="262" width="280" height="10" rx="5" fill="#b9aa95" opacity="0.35"/><rect x="64" y="286" width="220" height="10" rx="5" fill="#b9aa95" opacity="0.2"/><text x="64" y="360" fill="#b9aa95" font-size="18" font-weight="600" font-family="Verdana, Arial, sans-serif">conteúdo</text><rect x="412" y="214" width="448" height="220" rx="22" fill="#1d1712" stroke="#433628" stroke-width="2"/><rect x="432" y="234" width="220" height="16" rx="8" fill="#8fb9bd" opacity="0.88"/><rect x="432" y="262" width="280" height="10" rx="5" fill="#b9aa95" opacity="0.35"/><rect x="432" y="286" width="220" height="10" rx="5" fill="#b9aa95" opacity="0.2"/><text x="432" y="416" fill="#b9aa95" font-size="18" font-weight="600" font-family="Verdana, Arial, sans-serif">resultado</text></g></g></g></svg>