<svg xmlns="http://www.w3.org/2000/svg" width="1200" height="900" viewBox="0 0 1200 900" role="img" aria-label="Mostrar um fluxo de depuração por etapas."><rect width="1200" height="900" fill="#120f0c"/><rect x="46" y="46" width="1108" height="808" rx="40" fill="#17120e" stroke="#433628" stroke-width="3"/><rect x="82" y="82" width="240" height="14" rx="7" fill="#e4ba68" opacity="0.92"/><rect x="82" y="110" width="168" height="10" rx="5" fill="#b9aa95" opacity="0.3"/><g transform="translate(0 -92)"><rect x="150" y="250" width="240" height="120" rx="28" fill="#1d1712" stroke="#433628" stroke-width="3"/><rect x="480" y="250" width="240" height="120" rx="28" fill="#1d1712" stroke="#433628" stroke-width="3"/><rect x="810" y="250" width="240" height="120" rx="28" fill="#1d1712" stroke="#433628" stroke-width="3"/><rect x="480" y="520" width="240" height="120" rx="28" fill="#1d1712" stroke="#433628" stroke-width="3"/><path d="M390 310 H480" stroke="#e4ba68" stroke-width="8" stroke-linecap="round"/><path d="M720 310 H810" stroke="#e4ba68" stroke-width="8" stroke-linecap="round"/><path d="M600 370 V520" stroke="#e4ba68" stroke-width="8" stroke-linecap="round"/><path d="M470 310 l-16 -10 v20 z" fill="#e4ba68"/><path d="M800 310 l-16 -10 v20 z" fill="#e4ba68"/><path d="M600 505 l-10 -16 h20 z" fill="#e4ba68"/><rect x="170" y="286" width="200" height="44" rx="22" fill="#201913" stroke="#433628" stroke-width="2" /><text x="270" y="315" fill="#e4ba68" font-size="22" font-weight="700" text-anchor="middle" font-family="Verdana, Arial, sans-serif">JSON</text><rect x="500" y="286" width="200" height="44" rx="22" fill="#201913" stroke="#433628" stroke-width="2" /><text x="600" y="315" fill="#e4ba68" font-size="22" font-weight="700" text-anchor="middle" font-family="Verdana, Arial, sans-serif">fetch</text><rect x="830" y="286" width="200" height="44" rx="22" fill="#201913" stroke="#433628" stroke-width="2" /><text x="930" y="315" fill="#e4ba68" font-size="22" font-weight="700" text-anchor="middle" font-family="Verdana, Arial, sans-serif">feedback</text><rect x="500" y="556" width="200" height="44" rx="22" fill="#201913" stroke="#433628" stroke-width="2" /><text x="600" y="585" fill="#e4ba68" font-size="22" font-weight="700" text-anchor="middle" font-family="Verdana, Arial, sans-serif">tela</text></g></svg>